<svg width="1280" height="320" viewBox="0 0 1280 320" xmlns="http://www.w3.org/2000/svg">
  <defs>
    <linearGradient id="bg" x1="0%" y1="0%" x2="100%" y2="100%">
      <stop offset="0%" stop-color="#0A0E13"/>
      <stop offset="55%" stop-color="#0B1219"/>
      <stop offset="100%" stop-color="#091015"/>
    </linearGradient>
    <linearGradient id="teal" x1="0%" y1="0%" x2="100%" y2="0%">
      <stop offset="0%" stop-color="#35D0BA"/>
      <stop offset="100%" stop-color="#63E8D4"/>
    </linearGradient>
    <pattern id="grid" width="34" height="34" patternUnits="userSpaceOnUse">
      <path d="M 34 0 L 0 0 0 34" fill="none" stroke="#1B2831" stroke-width="1"/>
    </pattern>
    <radialGradient id="glow" cx="82%" cy="35%" r="55%">
      <stop offset="0%" stop-color="#35D0BA" stop-opacity="0.16"/>
      <stop offset="100%" stop-color="#35D0BA" stop-opacity="0"/>
    </radialGradient>
    <filter id="soft" x="-20%" y="-20%" width="140%" height="140%">
      <feGaussianBlur stdDeviation="1.1"/>
    </filter>
  </defs>
  <rect width="1280" height="320" fill="url(#bg)"/>
  <rect width="1280" height="320" fill="url(#grid)" opacity="0.55"/>
  <rect width="1280" height="320" fill="url(#glow)"/>
  <rect x="0" y="0" width="1280" height="320" fill="none" stroke="#16202A" stroke-width="2"/>
  <g transform="translate(28,26)">
    <circle cx="7" cy="7" r="6" fill="#3A4652"/>
    <circle cx="27" cy="7" r="6" fill="#3A4652"/>
    <circle cx="47" cy="7" r="6" fill="#35D0BA"/>
    <text x="72" y="12" font-family="JetBrains Mono, Consolas, monospace" font-size="12" fill="#5C6B76">analyst@soc-ai:~/soc-ai-investigation-assistant</text>
  </g>
  <line x1="28" y1="46" x2="1252" y2="46" stroke="#16202A" stroke-width="1"/>
  <text x="28" y="72" font-family="JetBrains Mono, Consolas, monospace" font-size="13" fill="#35D0BA">$ <tspan fill="#7C8B93">uvicorn app.main:app --reload</tspan></text>
  <text x="26" y="150" font-family="JetBrains Mono, Consolas, monospace" font-size="56" font-weight="700" fill="url(#teal)">SOC-AI</text>
  <text x="240" y="150" font-family="Segoe UI, Helvetica, Arial, sans-serif" font-size="52" font-weight="700" fill="#EAF6F5">Investigation Assistant</text>
  <text x="28" y="188" font-family="Segoe UI, Helvetica, Arial, sans-serif" font-size="17" fill="#8FA0A9">AI-assisted SOC incident investigation &#8212; detection triage, MITRE ATT&amp;CK mapping, Sigma &amp; SPL generation, one-click reporting.</text>
  <g font-family="JetBrains Mono, Consolas, monospace" font-size="12.5" fill="#9FB4BC">
    <g transform="translate(28,222)"><rect width="88" height="28" rx="6" fill="#111A22" stroke="#233039"/><text x="14" y="18">FastAPI</text></g>
    <g transform="translate(126,222)"><rect width="76" height="28" rx="6" fill="#111A22" stroke="#233039"/><text x="14" y="18">React</text></g>
    <g transform="translate(212,222)"><rect width="130" height="28" rx="6" fill="#111A22" stroke="#233039"/><text x="14" y="18">MITRE ATT&amp;CK</text></g>
    <g transform="translate(352,222)"><rect width="82" height="28" rx="6" fill="#111A22" stroke="#233039"/><text x="14" y="18">Sigma</text></g>
    <g transform="translate(444,222)"><rect width="118" height="28" rx="6" fill="#111A22" stroke="#233039"/><text x="14" y="18">Splunk SPL</text></g>
    <g transform="translate(572,222)"><rect width="140" height="28" rx="6" fill="#111A22" stroke="#233039"/><text x="14" y="18">Claude API</text></g>
  </g>
  <g transform="translate(880,150)" font-family="JetBrains Mono, Consolas, monospace" font-size="10.5" fill="#8FA0A9">
    <line x1="0" y1="30" x2="90" y2="0" stroke="#2A3A44" stroke-width="1.5" stroke-dasharray="3 4"/>
    <line x1="90" y1="0" x2="180" y2="46" stroke="#2A3A44" stroke-width="1.5" stroke-dasharray="3 4"/>
    <line x1="180" y1="46" x2="270" y2="10" stroke="#2A3A44" stroke-width="1.5" stroke-dasharray="3 4"/>
    <circle cx="0" cy="30" r="7" fill="#0B1219" stroke="#35D0BA" stroke-width="2"/>
    <text x="-22" y="55">IOC</text>
    <circle cx="90" cy="0" r="7" fill="#0B1219" stroke="#35D0BA" stroke-width="2"/>
    <text x="65" y="-12">Detection</text>
    <circle cx="180" cy="46" r="7" fill="#0B1219" stroke="#35D0BA" stroke-width="2"/>
    <text x="152" y="70">ATT&amp;CK</text>
    <circle cx="270" cy="10" r="8.5" fill="#35D0BA" filter="url(#soft)"/>
    <text x="246" y="-10" fill="#63E8D4">Report</text>
  </g>
</svg>
